<svg width="538" height="538" viewBox="0 0 538 538" fill="none" xmlns="http://www.w3.org/2000/svg">
<path d="M505 8C518.807 8 530 19.1929 530 33V505C530 518.807 518.807 530 505 530H137.877C124.07 530 112.877 518.807 112.877 505V430.741L118.66 431.082H129.559L133.131 430.903L137.776 430.546L145.994 429.653L152.783 428.581L159.929 427.151L167.075 425.365L172.435 423.757L178.866 421.612L186.19 418.754L192.622 415.896L199.768 412.322L202.626 410.714L206.914 408.213L210.666 405.89L214.238 403.567L216.025 402.316L219.062 400.173L221.921 398.028L223.707 396.599L225.851 394.991L228.53 392.668L231.032 390.524L232.461 389.273L233.712 388.023L235.141 386.772L239.25 382.663L241.93 379.805L244.431 377.124L246.038 375.159L247.646 373.372L249.075 371.585L251.397 368.727L253.721 365.689L255.328 363.366L257.293 360.687L260.151 356.22L262.296 352.825L264.797 348.537L267.119 344.07L268.905 340.676L270.692 336.745L272.3 333.172L274.979 326.561L276.767 321.38L278.91 314.59L280.34 309.052L281.769 302.977L282.841 297.08L284.091 288.326L284.806 279.929L284.984 275.283V264.92L284.806 260.811L284.448 256.165L283.555 248.304L282.305 240.621V239.013L283.02 235.082L284.627 226.863L286.949 214.356L291.059 192.56L293.738 178.087L296.061 165.938L298.204 154.503L300.705 141.103L303.921 123.95L306.601 109.479L307.137 107.87V105.726H306.779L281.59 110.55L226.565 121.092L197.803 126.63H196.552L192.622 124.665L188.334 122.699L179.938 119.305L172.613 116.804L169.04 115.731L162.43 113.944L157.606 112.873L151.175 111.622L143.672 110.55L135.989 109.835L129.559 109.479H119.018L112.877 109.792V33C112.877 19.1929 124.07 8 137.877 8H505Z" fill="#FDDB03"/>
<path d="M451.257 339.315H458.381L464.345 339.812L469.15 340.639L472.96 341.632L475.943 342.624L479.422 344.113L482.569 345.768L485.055 347.423L486.877 348.746L489.031 350.566L491.019 352.386L493.007 354.372L494.498 356.192L496.32 358.508L500.297 364.464L500.131 365.126L497.977 366.45L494.664 368.601L491.847 370.421L490.025 371.579L486.877 373.565L484.061 375.385L476.771 380.017L475.445 380.679L474.451 379.19L473.292 377.37L471.635 375.054L469.647 372.903L468.487 371.745L466.002 369.925L462.854 368.435L459.706 367.608L457.221 367.277H452.914L449.6 367.939L447.115 368.932L445.127 370.09L443.139 371.91L441.979 373.399L440.654 376.046L439.991 378.694V383.161L440.488 385.643L441.648 388.29L442.808 390.11L444.962 392.261L447.778 394.247L451.92 396.563L454.571 397.887L457.884 399.376L467.162 403.347L473.457 406.159L479.919 409.303L483.729 411.454L486.546 413.109L488.534 414.432L490.687 415.921L492.676 417.41L494.829 419.23L496.486 420.72L497.811 421.878L498.971 423.201L500.462 424.856L502.119 427.007L503.941 429.82L505.267 432.136L506.923 435.941L508.249 440.078L509.077 444.214L509.74 450.005V457.285L508.912 463.076L507.918 467.047L506.758 470.356L505.267 473.665L503.61 476.644L501.953 478.96L500.131 481.276L498.143 483.427L497.149 484.42H496.817L496.652 484.916L494.829 486.406L492.179 488.391L489.031 490.376L484.061 492.858L479.587 494.513L475.777 495.671L471.304 496.664L467.162 497.326L461.695 497.822H452.086L446.287 497.326L440.323 496.333L435.518 495.175L430.051 493.355L426.24 491.7L422.761 490.046L419.613 488.226L417.128 486.571L415.14 485.082L412.987 483.427L410.833 481.442L409.507 480.284L408.348 479.125L406.857 477.305L405.034 475.32L403.377 473.004L401.886 470.853L398.904 465.889L399.07 465.062L406.691 460.594L410.998 458.113L414.975 455.796L419.282 453.314L422.761 451.329L424.252 450.502L425.081 450.667L426.903 453.645L428.891 456.293L430.714 458.443L432.205 460.098L434.358 462.084L437.009 464.069L439.494 465.558L442.642 467.047L446.618 468.371L450.594 469.198L454.239 469.529H457.884L462.026 469.033L465.505 468.205L468.819 466.882L470.641 465.889L472.96 464.234L474.451 462.745L475.611 461.091L476.771 458.774L477.434 456.789L477.599 455.796V452.156L477.102 449.509L476.274 447.358L475.114 445.372L473.623 443.552L472.463 442.394L470.31 440.74L467.327 438.92L462.523 436.438L457.553 434.121L448.275 430.151L442.311 427.503L438.169 425.518L433.53 423.036L430.548 421.216L426.903 418.734L424.749 417.079L423.093 415.59L421.436 414.267L419.116 411.95L417.294 409.634L415.969 407.979L414.478 405.663L413.152 403.347L411.661 400.203L410.501 397.059L409.507 393.419L408.679 388.621L408.348 383.657V378.363L408.845 374.226L409.673 370.09L410.501 367.443L411.827 363.968L413.152 361.321L414.478 359.004L416.466 356.192L418.288 354.041L420.111 352.055L422.43 349.904L425.743 347.423L428.726 345.603L432.205 343.782L436.512 342.128L440.488 340.97L444.465 340.142L447.612 339.646L451.257 339.315Z" fill="#030202"/>
<path d="M355.855 340.507H378.24L382.219 340.673V454.179L381.722 459.489L380.893 464.301L379.732 468.616L378.737 471.603L377.245 475.088L375.089 478.904L372.934 482.057L371.11 484.049L369.949 485.376L368.457 486.87L366.136 488.695L363.648 490.52L360.498 492.346L356.021 494.337L352.041 495.665L347.067 496.826L342.093 497.49L337.947 497.822H331.481L325.677 497.324L321.034 496.494L316.557 495.333L312.91 494.005L309.925 492.678L306.111 490.686L302.629 488.363L300.474 486.704L298.152 484.712L295.499 482.057L294.339 480.73L292.515 478.406L291.188 476.581L289.53 474.092L286.877 469.28L287.043 468.45L288.535 467.454L292.017 465.297L296.66 462.476L299.976 460.484L304.619 457.663L309.925 454.51L312.412 453.017L313.075 453.349L315.231 457.166L317.884 461.148L319.376 462.974L320.869 464.633L323.024 466.293L325.346 467.62L328.164 468.616L330.486 469.114L331.978 469.28H334.631L337.616 468.948L340.932 468.118L343.585 466.79L345.409 465.463L346.57 464.135L347.896 461.812L348.891 459.489L349.72 456.004L350.052 453.847L350.218 451.358V345.817L350.383 340.839L350.549 340.673L355.855 340.507Z" fill="#030202"/>
<path d="M8.01846 173.755C8.05458 173.717 8.05756 173.66 8.1084 173.67C8.52387 173.751 11.4539 174.327 28.4837 177.672C30.9276 178.152 33.1063 178.58 35.0488 178.961C43.3231 180.586 58.7211 183.622 66.9931 185.258V185.258L70.5019 185.96C70.6205 185.984 70.7411 185.996 70.8621 185.996V185.996C71.1466 185.996 71.4273 185.93 71.6819 185.803L74.6745 184.31L77.5423 183.046L80.6148 181.781L83.7898 180.622L86.7599 179.674L90.9591 178.515L95.6704 177.461L99.4599 176.829L102.532 176.408L105.912 176.092L109.907 175.881H115.949L119.636 176.092L124.04 176.513L128.342 177.145L132.029 177.883L134.794 178.515L138.584 179.569L140.632 180.201L144.831 181.676L149.645 183.678L152.103 184.837L153.903 185.762C154.201 185.916 154.531 185.996 154.866 185.996V185.996C155.004 185.996 155.141 185.982 155.276 185.956L171.563 182.729L203.108 176.513L217.531 173.672C217.543 173.669 217.555 173.668 217.567 173.668V173.668C217.67 173.668 217.753 173.752 217.753 173.855V174.76C217.753 174.874 217.735 174.988 217.7 175.097L217.446 175.881L215.91 184.415L214.066 194.53L212.632 202.432L211.403 209.176L210.072 216.34L208.536 224.875L206.18 237.729L204.849 245.104L203.927 249.951L203.604 251.777C203.546 252.104 203.517 252.436 203.517 252.769V252.769C203.517 253.067 203.541 253.365 203.587 253.66L204.234 257.748L204.746 262.384L204.951 265.123L205.054 267.547V273.658L204.951 276.397L204.541 281.349L203.824 286.512L203.21 289.989L202.391 293.571L201.571 296.838L200.342 300.841L199.318 303.897L197.782 307.795L196.86 309.903L195.836 312.221L194.812 314.222L193.48 316.856L192.046 319.385L190.817 321.387L189.179 324.021L188.052 325.602L187.13 326.971L185.799 328.763L184.467 330.448L183.648 331.502L182.726 332.556L181.804 333.715L180.371 335.295L178.834 336.981L176.479 339.404L175.659 340.142L174.942 340.879L174.123 341.617L172.689 342.881L171.153 344.251L169.924 345.199L168.9 346.042L167.261 347.306L165.52 348.571L164.496 349.308L162.447 350.678L160.297 352.048L157.838 353.523L156.2 354.471L152.103 356.578L148.416 358.264L144.217 359.95L140.53 361.214L137.457 362.163L133.36 363.216L129.264 364.059L125.372 364.691L120.661 365.218L117.998 365.429L115.949 365.534H109.702L106.219 365.323L102.635 365.007L98.026 364.375L93.2123 363.427L89.3204 362.479L84.814 361.109L80.9221 359.739L76.8253 358.053L73.2407 356.368L71.2947 355.419L69.3488 354.366L66.7883 352.891L64.2278 351.31L62.4867 350.151L60.9504 349.098L59.2093 347.833L57.2634 346.358L55.8295 345.199L54.1908 343.829L51.3231 341.301L49.9917 340.036L49.2747 339.299L48.4554 338.561L46.407 336.454L45.6901 335.611L44.6659 334.557L43.7441 333.398L42.5151 332.029L41.5933 330.87L40.3643 329.289L39.0329 327.498L37.9062 325.918L36.6772 324.127L35.653 322.546L34.0143 319.912L32.4781 317.173L31.4539 315.276L29.7128 311.799L28.0741 308.111L26.7426 304.74L25.4112 300.947L24.5918 298.313L23.4652 294.203L22.3386 289.041L21.6217 284.721L21.0072 279.453L20.6999 274.711V266.282L21.0072 261.857L21.6217 256.8L21.9131 254.901C22.1273 253.505 22.1326 252.086 21.9289 250.689V250.689L20.5975 243.524L18.754 233.409L16.3983 220.449L14.8621 212.02L12.9161 201.379L10.0484 185.68L8.71693 178.41L8.10242 175.038L8.04535 174.803C8.01522 174.679 8 174.552 8 174.424V173.8C8 173.783 8.00662 173.767 8.01846 173.755V173.755Z" fill="#FDDB03"/>
</svg>
